<mxfile host="app.diagrams.net" modified="2023-09-25T08:25:21.720Z" agent="Mozilla/5.0 (X11; Linux x86_64) AppleWebKit/537.36 (KHTML, like Gecko) Chrome/116.0.0.0 Safari/537.36" version="21.8.2" etag="RAgMainfN5ZwPbFIoxzS" type="github">
  <diagram name="Page-1" id="xPYnt_LDqZjr_-P9xpXB">
    <mxGraphModel>
      <root>
        <mxCell id="0" />
        <mxCell id="1" parent="0" />
      </root>
    </mxGraphModel>
  </diagram>
</mxfile>
